<svg xmlns="http://www.w3.org/2000/svg" version="1.1" xmlns:xlink="http://www.w3.org/1999/xlink" xmlns:svgjs="http://svgjs.com/svgjs" width="512px" height="512px"><svg version="1.1" xmlns="http://www.w3.org/2000/svg" xmlns:xlink="http://www.w3.org/1999/xlink" x="0px" y="0px" width="512px" height="512px" viewBox="0 0 512 512" enable-background="new 0 0 512 512" xml:space="preserve">
<g id="SvgjsG1010" enable-background="new    ">
</g>
<g id="SvgjsG1009" enable-background="new    ">
</g>
<g id="SvgjsG1008">
</g>
<g id="SvgjsG1007">
</g>
<g id="SvgjsG1006" enable-background="new    ">
	<g>
		<path fill="#0EB059" d="M252.047,350.4c-11.7-28.176-33.973-96.204-33.973-152.983c0-55.666,22.363-113.962,33.899-136.824
			c4.92,8.659,11.969,22.832,18.792,40.759c9.042,23.759,19.82,59.712,19.82,96.065C290.586,253.415,265.188,322.192,252.047,350.4z
			"></path>
		<path fill="#001A1F" d="M252.544,82.667c12.498,26.964,28.542,71.468,28.542,114.75c0,34.902-10.322,73.922-18.981,100.509
			c-3.23,9.921-6.484,18.905-9.527,26.72c-2.651-7.71-5.474-16.548-8.276-26.309c-7.631-26.587-16.727-65.677-16.727-100.92
			C227.574,153.753,241.519,109.616,252.544,82.667 M251.638,44c-4.459,0-43.064,78.349-43.064,153.417
			s38.604,172.258,43.064,172.258c4.458,0,48.448-97.189,48.448-172.258S256.097,44,251.638,44L251.638,44z"></path>
	</g>
</g>
<g id="SvgjsG1005" enable-background="new    ">
	<g>
		<path fill="#0EB059" d="M246.375,345.297c-26.707-12.916-87.166-48.305-123.962-90.315
			c-38.044-43.441-41.952-88.824-41.146-104.187c16.687,1.742,58.56,14.009,95.695,56.41c24.198,27.628,42.209,64.834,53.057,91.181
			C238.099,318.012,243.422,334.485,246.375,345.297z"></path>
		<path fill="#001A1F" d="M90.962,162.311c18.337,4.75,50.011,18.222,78.853,51.154c22.895,26.141,40.17,61.542,50.631,86.636
			c3.954,9.485,7.273,18.304,9.982,26.095c-6.965-3.913-14.802-8.56-23.211-13.91c-22.656-14.416-54.519-37.146-77.657-63.563
			c-21.407-24.444-30.842-48.949-34.988-65.201C92.458,175.231,91.418,168.028,90.962,162.311 M77.383,141.067
			c-2.112,0-3.45,0.234-3.883,0.614c-3.355,2.936-7.69,63.088,41.767,119.561c47.923,54.715,134.269,98.654,142.638,98.654
			c0.269,0,0.455-0.045,0.56-0.136c3.356-2.939-24.896-102.341-74.356-158.813C141.035,151.765,91.634,141.067,77.383,141.067
			L77.383,141.067z"></path>
	</g>
</g>
<g id="SvgjsG1004" enable-background="new    ">
	<g>
		<path fill="#0EB059" d="M266.665,344.249c2.938-10.768,8.215-27.131,16.211-46.608c10.77-26.233,28.649-63.277,52.668-90.781
			c36.805-42.149,78.283-54.383,94.881-56.143c0.789,15.335-3.119,60.479-40.846,103.681
			C353.145,296.122,293.24,331.331,266.665,344.249z"></path>
		<path fill="#001A1F" d="M420.719,162.258c-0.458,5.672-1.49,12.803-3.574,20.999c-4.115,16.177-13.479,40.566-34.722,64.892
			c-28.113,32.195-70.686,60.446-99.801,76.944c2.674-7.698,5.94-16.394,9.825-25.74c10.384-24.983,27.53-60.226,50.253-86.246
			C371.223,180.443,402.518,167.023,420.719,162.258 M434.346,140.982c-14.146,0-63.19,10.651-105.957,59.628
			c-49.104,56.23-77.153,155.215-73.822,158.14c0.104,0.091,0.29,0.136,0.556,0.136c8.304,0,94.032-43.75,141.612-98.239
			c49.104-56.23,44.799-116.127,41.468-119.053C437.772,141.216,436.441,140.982,434.346,140.982L434.346,140.982z"></path>
	</g>
</g>
<g id="SvgjsG1003" enable-background="new    ">
	<g>
		<path fill="#0EB059" d="M156.951,371.199c-12.507,0-24.859-0.866-36.713-2.575c-34.681-4.999-54.329-16.048-64.704-24.437
			c-9.194-7.433-13.258-14.433-14.635-17.744c4.544-6.21,22.085-20.839,60.52-20.839c8.283,0,17.19,0.678,26.473,2.016
			c54.624,7.873,99.011,35.988,116.012,49.549c-14.992,5.49-47.027,14.03-86.942,14.03
			C156.955,371.199,156.957,371.199,156.951,371.199z"></path>
		<path fill="#001A1F" d="M101.418,315.104c7.832,0,16.282,0.646,25.118,1.919c33.468,4.823,61.96,17.426,79.968,27.149
			c6.085,3.285,11.481,6.507,16.149,9.504c-16.387,4.103-39.459,8.022-65.703,8.022c-12.053,0-23.949-0.833-35.357-2.478
			c-44.473-6.411-62.232-22.576-68.707-31.187C59.49,322.847,73.95,315.104,101.418,315.104 M101.418,296.104
			c-52.476,0-69.958,25.256-70.506,29.064c-0.636,4.414,13.672,42.147,87.971,52.858c13.056,1.882,25.854,2.672,38.068,2.672
			c57.294,0,101.955-17.375,102.479-21.015c0.636-4.414-55.884-50.759-130.183-61.467
			C119.034,296.746,109.78,296.104,101.418,296.104L101.418,296.104z"></path>
	</g>
</g>
<g id="SvgjsG1002" enable-background="new    ">
	<g>
		<path fill="#0EB059" d="M354.257,370.947c-39.762-0.001-71.714-8.334-86.843-13.756c17.217-13.442,61.537-40.953,115.917-48.672
			c9.302-1.32,18.227-1.99,26.526-1.99c38.286,0,55.9,14.294,60.557,20.452c-1.424,3.295-5.516,10.128-14.624,17.364
			c-10.393,8.258-30.063,19.135-64.755,24.061c-11.878,1.687-24.249,2.541-36.768,2.541
			C354.264,370.947,354.261,370.947,354.257,370.947z"></path>
		<path fill="#001A1F" d="M409.857,316.029c27.185,0,41.676,7.451,48.414,12.561c-6.666,8.522-24.565,24.162-68.572,30.41
			c-11.437,1.624-23.361,2.447-35.442,2.447c-25.976,0-48.847-3.774-65.231-7.77c4.529-2.843,9.723-5.882,15.543-8.977
			c18.035-9.588,46.571-22.017,80.099-26.775C393.527,316.668,402.003,316.029,409.857,316.029 M409.857,297.029
			c-8.374,0-17.633,0.633-27.861,2.085c-74.382,10.558-130.962,56.258-130.326,60.611c0.524,3.587,45.242,20.722,102.587,20.722
			c12.234,0,25.034-0.778,38.113-2.636c74.383-10.561,88.708-47.771,88.069-52.121C479.891,321.936,462.383,297.029,409.857,297.029
			L409.857,297.029z"></path>
	</g>
</g>
<g id="SvgjsG1001" enable-background="new    ">
	<g>
		<path fill="#0EB059" d="M139.632,445.024c-11.131,0-17.519-2.488-20.27-3.919c0.091-3.325,1.085-10.607,6.986-20.315
			c6.666-10.967,21.229-27.221,52.755-42.375c20.1-9.661,38.53-11.689,50.452-11.689c9.244,0,16.327,1.211,20.516,2.308
			c-3.224,11.707-16.241,39.999-44.524,55.457c-31.055,16.972-52.986,20.534-65.914,20.534
			C139.633,445.024,139.633,445.024,139.632,445.024z"></path>
		<path fill="#001A1F" d="M229.556,376.226c2.771,0,5.288,0.117,7.536,0.304c-1.357,2.947-3.091,6.265-5.279,9.802
			c-5.536,8.946-15.376,21.382-30.82,29.822c-29.297,16.011-49.539,19.371-61.36,19.371c-3.859,0-6.978-0.354-9.411-0.818
			c0.97-2.918,2.621-6.605,5.424-10.839c6.216-9.385,19.516-23.403,47.574-36.89C201.707,378.091,218.622,376.226,229.556,376.226
			 M229.556,357.226c-15.146,0-34.459,2.962-54.568,12.627c-67.658,32.522-66.558,72.299-64.518,76.265
			c1.085,2.109,10.583,8.407,29.162,8.407c16.325,0,39.662-4.861,70.472-21.698c39.841-21.774,52.114-65.522,50.077-69.486
			C259.085,361.21,247.123,357.226,229.556,357.226L229.556,357.226z"></path>
	</g>
</g>
<g id="SvgjsG1000" enable-background="new    ">
	<g>
		<path fill="#0EB059" d="M372.547,443.595c-12.942,0-34.895-3.549-65.978-20.451c-28.231-15.353-41.267-43.461-44.517-55.134
			c4.196-1.092,11.278-2.293,20.517-2.293c11.934,0,30.382,2.02,50.5,11.642c31.529,15.083,46.099,31.256,52.769,42.167
			c5.884,9.626,6.892,16.855,6.99,20.172C390.067,441.123,383.674,443.595,372.547,443.595
			C372.547,443.595,372.548,443.595,372.547,443.595z"></path>
		<path fill="#001A1F" d="M282.569,375.217c10.95,0,27.89,1.858,46.399,10.711c28.051,13.419,41.354,27.358,47.573,36.689
			c2.772,4.159,4.418,7.788,5.394,10.669c-2.434,0.46-5.545,0.809-9.39,0.809c-11.839,0-32.108-3.348-61.438-19.297
			c-15.441-8.397-25.279-20.762-30.813-29.656c-2.158-3.468-3.874-6.726-5.223-9.627
			C277.311,375.331,279.814,375.217,282.569,375.217 M282.569,356.217c-17.579,0-29.543,3.966-30.639,6.088
			c-2.042,3.947,10.236,47.506,50.101,69.185c30.827,16.764,54.181,21.605,70.515,21.605c18.591,0,28.09-6.27,29.176-8.373
			c2.04-3.948,3.142-43.55-64.554-75.934C317.051,359.166,297.724,356.217,282.569,356.217L282.569,356.217z"></path>
	</g>
</g>
</svg><style>@media (prefers-color-scheme: light) { :root { filter: none; } }
</style></svg>