<?xml version="1.0" standalone="no"?>
<!DOCTYPE svg PUBLIC "-//W3C//DTD SVG 20010904//EN"
 "http://www.w3.org/TR/2001/REC-SVG-20010904/DTD/svg10.dtd">
<svg version="1.0" xmlns="http://www.w3.org/2000/svg"
 width="700.000000pt" height="700.000000pt" viewBox="0 0 700.000000 700.000000"
 preserveAspectRatio="xMidYMid meet">
<metadata>
Created by potrace 1.14, written by Peter Selinger 2001-2017
</metadata>
<g transform="translate(0.000000,700.000000) scale(0.100000,-0.100000)"
fill="#000000" stroke="none">
<path d="M3397 6347 c-102 -153 -256 -530 -361 -883 -47 -159 -119 -470 -131
-564 -4 -30 -8 -57 -10 -60 -2 -3 -6 -34 -10 -70 -4 -36 -8 -72 -10 -80 -25
-133 -25 -574 0 -795 7 -69 16 -132 21 -155 7 -32 11 -37 -82 110 -269 422
-532 684 -949 947 -11 7 -81 44 -156 81 -214 108 -474 186 -631 191 -60 2 -68
0 -80 -21 -21 -38 -15 -377 8 -460 3 -10 7 -29 10 -43 6 -35 15 -78 18 -90 2
-5 6 -23 10 -40 18 -73 73 -229 113 -325 40 -94 66 -145 134 -268 34 -60 140
-217 150 -220 5 -2 9 -8 9 -14 0 -36 354 -406 525 -548 50 -41 96 -81 104 -88
7 -7 49 -40 92 -73 43 -33 79 -62 79 -64 0 -2 -19 2 -42 11 -67 23 -262 69
-343 80 -27 3 -53 8 -56 10 -6 4 -31 7 -179 24 -98 11 -399 10 -475 -1 -33 -5
-75 -12 -94 -14 -259 -39 -547 -198 -624 -345 -18 -34 -18 -36 3 -90 63 -161
257 -340 495 -457 183 -90 463 -172 675 -198 55 -6 128 -16 154 -21 28 -5 252
-17 308 -17 l46 0 -109 -79 c-303 -219 -489 -489 -504 -731 -5 -85 6 -104 78
-136 104 -46 187 -63 311 -64 84 0 224 11 236 18 3 2 22 6 42 9 143 23 336 91
558 197 256 123 382 218 535 400 58 70 185 256 185 273 0 2 12 30 26 61 l27
58 39 -79 c42 -84 129 -222 174 -276 73 -87 228 -229 304 -280 181 -119 464
-245 680 -304 239 -65 470 -75 631 -28 74 22 146 60 159 83 28 54 0 200 -65
336 -86 179 -253 359 -474 509 l-53 36 53 1 c113 1 297 16 414 34 17 3 48 7
70 11 22 3 72 12 110 21 39 8 78 16 87 18 88 19 282 82 358 117 25 11 59 27
75 34 56 24 204 119 257 164 122 103 204 209 233 298 17 50 16 52 -3 84 -63
101 -235 217 -412 277 -75 26 -226 59 -314 69 -83 9 -363 9 -461 -1 -196 -19
-422 -64 -625 -123 -14 -4 18 26 70 66 52 41 97 76 100 79 3 4 30 26 60 51
134 109 352 317 440 420 12 14 32 37 46 52 128 146 314 447 384 623 13 33 26
65 30 70 9 13 79 235 86 271 3 15 7 30 9 34 4 7 32 166 41 236 12 88 8 301 -6
335 l-13 31 -86 -5 c-47 -3 -97 -8 -111 -11 -14 -3 -38 -8 -55 -12 -143 -29
-381 -123 -550 -217 -59 -33 -216 -133 -250 -159 -340 -260 -559 -510 -808
-923 -60 -99 -106 -170 -103 -157 12 46 15 58 21 106 3 27 8 52 10 56 2 4 6
33 10 66 3 33 7 70 10 84 4 23 9 64 20 200 7 77 7 338 1 404 -3 31 -9 82 -12
114 -30 314 -142 741 -291 1117 -110 276 -294 629 -343 655 -15 8 -24 2 -53
-43z"/>
</g>
</svg>
