<?xml version="1.0" encoding="utf-8"?>
<!-- Generator: Adobe Illustrator 16.0.0, SVG Export Plug-In . SVG Version: 6.00 Build 0)  -->
<!DOCTYPE svg PUBLIC "-//W3C//DTD SVG 1.1//EN" "http://www.w3.org/Graphics/SVG/1.1/DTD/svg11.dtd">
<svg version="1.1" xmlns="http://www.w3.org/2000/svg" xmlns:xlink="http://www.w3.org/1999/xlink" x="0px" y="0px" width="512px"
	 height="512px" viewBox="0 0 512 512" enable-background="new 0 0 512 512" xml:space="preserve">
<g id="Rounded_Rectangle_1_1_" enable-background="new    ">
	<g id="Rounded_Rectangle_1">
		<g>
			<path fill="#001A1F" d="M486,240H28c-1.657,0-3,1.343-3,3s1.343,3,3,3h458c1.657,0,3-1.343,3-3S487.657,240,486,240z"/>
		</g>
	</g>
</g>
<g id="Rounded_Rectangle_1_copy_1_" enable-background="new    ">
	<g id="Rounded_Rectangle_1_copy">
		<g>
			<path fill="#001A1F" d="M486,346H28c-1.657,0-3,1.343-3,3s1.343,3,3,3h458c1.657,0,3-1.343,3-3S487.657,346,486,346z"/>
		</g>
	</g>
</g>
<g id="Weed">
	<path fill="#001A1F" d="M91.508,311.986l10.623-56.15h16.206L100.83,334.75H84.462l-12.845-52.79l-12.845,52.79H42.403
		l-17.506-78.914h16.206l10.677,56.042l13.008-56.042h13.767L91.508,311.986z"/>
	<path fill="#001A1F" d="M151.398,335.834c-8.6,0-15.601-2.637-21.002-7.913c-5.402-5.275-8.103-12.304-8.103-21.083v-1.518
		c0-5.89,1.138-11.156,3.415-15.8c2.276-4.643,5.501-8.22,9.674-10.731c4.174-2.511,8.934-3.767,14.282-3.767
		c8.021,0,14.335,2.529,18.943,7.588c4.606,5.06,6.91,12.231,6.91,21.517v6.396h-37.343c0.505,3.83,2.033,6.901,4.58,9.213
		c2.548,2.313,5.772,3.469,9.675,3.469c6.034,0,10.749-2.186,14.146-6.558l7.696,8.618c-2.349,3.324-5.528,5.917-9.539,7.777
		S156.276,335.834,151.398,335.834z M149.609,287.65c-3.108,0-5.628,1.053-7.561,3.158c-1.934,2.105-3.171,5.118-3.713,9.037h21.788
		v-1.253c-0.073-3.483-1.012-6.179-2.818-8.084C155.499,288.604,152.933,287.65,149.609,287.65z"/>
	<path fill="#001A1F" d="M211.396,335.834c-8.6,0-15.601-2.637-21.002-7.913c-5.402-5.275-8.103-12.304-8.103-21.083v-1.518
		c0-5.89,1.138-11.156,3.415-15.8c2.276-4.643,5.501-8.22,9.675-10.731c4.173-2.511,8.933-3.767,14.281-3.767
		c8.021,0,14.336,2.529,18.942,7.588c4.607,5.06,6.911,12.231,6.911,21.517v6.396h-37.343c0.505,3.83,2.032,6.901,4.58,9.213
		c2.547,2.313,5.772,3.469,9.674,3.469c6.034,0,10.749-2.186,14.146-6.558l7.696,8.618c-2.349,3.324-5.528,5.917-9.539,7.777
		S216.274,335.834,211.396,335.834z M209.608,287.65c-3.108,0-5.628,1.053-7.561,3.158c-1.933,2.105-3.17,5.118-3.712,9.037h21.788
		v-1.253c-0.073-3.483-1.012-6.179-2.818-8.084C215.497,288.604,212.932,287.65,209.608,287.65z"/>
	<path fill="#001A1F" d="M241.965,304.994c0-9.141,2.05-16.422,6.151-21.842c4.101-5.42,9.71-8.13,16.829-8.13
		c5.709,0,10.424,2.133,14.146,6.396V251.5h15.717v83.25h-14.146l-0.759-6.232c-3.902,4.877-8.925,7.316-15.067,7.316
		c-6.902,0-12.438-2.719-16.612-8.157C244.052,322.239,241.965,314.679,241.965,304.994z M257.629,306.161
		c0,5.501,0.956,9.717,2.872,12.647c1.915,2.932,4.696,4.396,8.347,4.396c4.842,0,8.256-2.044,10.244-6.134v-23.178
		c-1.951-4.089-5.331-6.134-10.136-6.134C261.403,287.76,257.629,293.894,257.629,306.161z"/>
</g>
<g id="info">
	<path fill="#0FB159" d="M311.643,261.053c0-1.621,0.496-2.99,1.49-4.107c0.993-1.117,2.466-1.677,4.417-1.677
		s3.433,0.56,4.444,1.677c1.011,1.117,1.518,2.486,1.518,4.107c0,1.623-0.507,2.975-1.518,4.057
		c-1.012,1.08-2.493,1.621-4.444,1.621s-3.424-0.541-4.417-1.621C312.139,264.027,311.643,262.676,311.643,261.053z
		 M322.482,335.068h-10.027V276.57h10.027V335.068z"/>
	<path fill="#0FB159" d="M348.011,276.57l0.325,7.354c4.479-5.623,10.333-8.436,17.561-8.436c12.393,0,18.645,6.975,18.753,20.924
		v38.656h-10.027v-38.711c-0.036-4.217-1.003-7.334-2.899-9.354c-1.897-2.018-4.851-3.027-8.861-3.027
		c-3.252,0-6.107,0.865-8.563,2.596c-2.458,1.73-4.373,4-5.745,6.813v41.684h-10.027V276.57H348.011z"/>
	<path fill="#0FB159" d="M404.703,335.068v-50.768h-9.269v-7.73h9.269v-6.002c0-6.271,1.68-11.117,5.04-14.543
		c3.36-3.423,8.111-5.136,14.255-5.136c2.312,0,4.606,0.305,6.883,0.913l-0.542,8.063c-1.699-0.326-3.505-0.488-5.42-0.488
		c-3.252,0-5.764,0.951-7.533,2.848c-1.771,1.898-2.656,4.619-2.656,8.162v6.184h12.521v7.73h-12.521v50.768H404.703z"/>
	<path fill="#0FB159" d="M435.651,305.279c0-5.732,1.128-10.885,3.387-15.463c2.258-4.578,5.401-8.109,9.431-10.598
		c4.028-2.486,8.626-3.73,13.794-3.73c7.985,0,14.444,2.758,19.376,8.271c4.933,5.516,7.398,12.85,7.398,22.006v0.703
		c0,5.695-1.094,10.803-3.279,15.326c-2.187,4.523-5.312,8.047-9.376,10.57c-4.065,2.523-8.735,3.783-14.011,3.783
		c-7.949,0-14.39-2.756-19.322-8.271c-4.932-5.514-7.397-12.813-7.397-21.896V305.279z M445.732,306.469
		c0,6.486,1.508,11.695,4.525,15.623c3.017,3.93,7.054,5.895,12.113,5.895c5.095,0,9.141-1.992,12.141-5.975
		c2.999-3.982,4.499-9.561,4.499-16.732c0-6.416-1.527-11.615-4.58-15.598c-3.054-3.982-7.109-5.975-12.168-5.975
		c-4.951,0-8.942,1.965-11.978,5.893C447.25,293.529,445.732,299.15,445.732,306.469z"/>
</g>
<g id="Ellipse_1_1_" enable-background="new    ">
	<g>
		<path fill="#0EB059" d="M256.15,196.915c-4.343-10.43-12.65-35.756-12.65-56.915c0-20.775,8.369-42.51,12.645-50.941
			C260.946,97.47,270.5,119.417,270.5,140C270.5,160.866,261.027,186.472,256.15,196.915z"/>
		<path fill="#001A1F" d="M256.333,97.214C260.988,107.224,267,123.833,267,140c0,16.125-5.878,35.264-10.632,47.453
			C252.169,175.207,247,156.063,247,140C247,123.69,252.226,107.218,256.333,97.214 M256,83c-1.657,0-16,29.109-16,57
			s14.343,64,16,64c1.656,0,18-36.109,18-64S257.656,83,256,83L256,83z"/>
	</g>
</g>
<g id="Ellipse_1_copy_1_" enable-background="new    ">
	<g>
		<path fill="#0EB059" d="M254.14,195.023c-9.87-4.754-32.44-17.936-46.174-33.616c-14.173-16.183-15.603-33.076-15.293-38.761
			c6.184,0.636,21.779,5.185,35.605,20.972C242.087,159.386,251.232,184.264,254.14,195.023z"/>
		<path fill="#001A1F" d="M196.209,126.873c6.807,1.743,18.655,6.742,29.436,19.051c10.476,11.961,18.365,30.001,22.576,42.052
			c-10.906-6.136-26.998-16.745-37.622-28.874C199.703,146.66,196.763,133.909,196.209,126.873 M191.258,119.064
			c-0.785,0-1.282,0.087-1.443,0.228c-1.247,1.091-2.857,23.439,15.518,44.421c17.805,20.329,49.886,36.654,52.995,36.654
			c0.1,0,0.169-0.017,0.208-0.051c1.247-1.092-9.25-38.023-27.626-59.005C214.907,123.039,196.553,119.064,191.258,119.064
			L191.258,119.064z"/>
	</g>
</g>
<g id="Ellipse_1_copy_2_1_" enable-background="new    ">
	<g>
		<path fill="#0EB059" d="M261.488,194.633c2.897-10.733,11.973-35.467,25.664-51.145c13.702-15.693,29.15-20.229,35.302-20.872
			c0.302,5.676-1.128,22.48-15.183,38.573C293.674,176.763,271.311,189.877,261.488,194.633z"/>
		<path fill="#001A1F" d="M318.913,126.853c-0.559,7.015-3.488,19.68-14.277,32.036c-10.497,12.021-26.399,22.555-37.224,28.675
			c4.188-11.998,12.007-29.898,22.376-41.772C300.449,133.581,312.156,128.601,318.913,126.853 M323.883,119.032
			c-5.256,0-23.478,3.958-39.367,22.154c-18.244,20.892-28.665,57.668-27.428,58.755c0.038,0.034,0.107,0.05,0.206,0.05
			c3.085,0,34.937-16.255,52.614-36.5c18.244-20.892,16.645-43.146,15.407-44.232C325.156,119.119,324.661,119.032,323.883,119.032
			L323.883,119.032z"/>
	</g>
</g>
<g id="Ellipse_1_copy_3_1_" enable-background="new    ">
	<g>
		<path fill="#0EB059" d="M220.82,204.596c-4.648,0-9.239-0.322-13.644-0.957c-22.598-3.257-28.382-13.224-29.486-15.734
			c1.71-2.323,8.234-7.739,22.499-7.739c3.079,0,6.389,0.252,9.839,0.75c20.355,2.934,36.871,13.418,43.159,18.448
			c-5.551,2.041-17.479,5.233-32.363,5.233C220.821,204.596,220.822,204.596,220.82,204.596z"/>
		<path fill="#001A1F" d="M200.188,183.666c2.912,0,6.055,0.24,9.34,0.713c14.997,2.162,28.019,8.646,35.891,13.691
			c-6.102,1.541-14.747,3.025-24.599,3.025c-4.48,0-8.903-0.31-13.145-0.921c-16.623-2.396-23.216-8.456-25.602-11.656
			C184.515,186.583,189.902,183.666,200.188,183.666 M200.188,176.666c-19.497,0-25.993,9.384-26.196,10.799
			c-0.236,1.64,5.08,15.659,32.685,19.639c4.851,0.699,9.606,0.993,14.144,0.993c21.287,0,37.88-6.456,38.075-7.808
			c0.236-1.64-20.763-18.858-48.368-22.837C206.732,176.904,203.295,176.666,200.188,176.666L200.188,176.666z"/>
	</g>
</g>
<g id="Ellipse_1_copy_4_1_" enable-background="new    ">
	<g>
		<path fill="#0EB059" d="M294.127,204.503c-14.828-0.001-26.726-3.115-32.327-5.131c6.368-4.986,22.858-15.246,43.125-18.123
			c3.457-0.491,6.774-0.74,9.859-0.74c14.319,0,20.861,5.375,22.552,7.648c-1.297,3.329-8.404,12.399-29.541,15.4
			c-4.414,0.627-9.012,0.945-13.664,0.945C294.13,204.503,294.129,204.503,294.127,204.503z"/>
		<path fill="#001A1F" d="M314.784,184.01c10.181,0,15.58,2.808,18.072,4.715c-2.456,3.168-9.103,9.032-25.554,11.368
			c-4.252,0.604-8.685,0.91-13.176,0.91c-9.751,0-18.321-1.429-24.423-2.93c7.91-4.956,20.848-11.248,35.713-13.358
			C308.711,184.247,311.862,184.01,314.784,184.01 M314.784,177.01c-3.112,0-6.552,0.235-10.352,0.774
			c-27.636,3.923-48.657,20.902-48.421,22.52c0.194,1.333,16.81,7.699,38.115,7.699c4.546,0,9.301-0.29,14.16-0.979
			c27.636-3.924,32.958-17.749,32.721-19.365C340.804,186.263,334.299,177.01,314.784,177.01L314.784,177.01z"/>
	</g>
</g>
<g id="Ellipse_1_copy_5_1_" enable-background="new    ">
	<g>
		<path fill="#0EB059" d="M214.385,232.025c-4.212,0-6.598-0.957-7.595-1.486c0.006-3.611,3.387-14.252,22.248-23.318
			c7.473-3.592,14.326-4.346,18.758-4.346c3.459,0,6.104,0.456,7.659,0.866c-1.185,4.34-6.02,14.887-16.565,20.651
			C227.346,230.7,219.192,232.025,214.385,232.025C214.385,232.025,214.385,232.025,214.385,232.025z"/>
		<path fill="#001A1F" d="M247.796,206.375c1.055,0,2.012,0.045,2.863,0.118c-2.021,4.398-6.141,10.833-13.448,14.827
			c-10.896,5.955-18.427,7.205-22.827,7.205c-1.462,0-2.64-0.136-3.554-0.314c1.235-3.756,5.442-10.971,19.724-17.835
			C237.433,207.069,243.727,206.375,247.796,206.375 M247.796,199.375c-5.628,0-12.803,1.101-20.274,4.691
			c-25.137,12.083-24.729,26.861-23.971,28.335c0.403,0.784,3.931,3.124,10.834,3.124c6.065,0,14.737-1.806,26.184-8.062
			c14.802-8.09,19.362-24.344,18.605-25.816C258.767,200.855,254.322,199.375,247.796,199.375L247.796,199.375z"/>
	</g>
</g>
<g id="Ellipse_1_copy_6_1_" enable-background="new    ">
	<g>
		<path fill="#0EB059" d="M300.922,231.494c-4.813,0-12.974-1.319-24.527-7.602c-10.526-5.725-15.367-16.205-16.563-20.532
			c1.558-0.408,4.202-0.86,7.659-0.86c4.438,0,11.296,0.751,18.776,4.328c18.839,9.012,22.239,19.588,22.255,23.188
			C307.521,230.543,305.132,231.494,300.922,231.494z"/>
		<path fill="#001A1F" d="M267.491,206c4.075,0,10.378,0.691,17.266,3.985c14.232,6.809,18.46,13.958,19.712,17.698
			c-0.914,0.176-2.09,0.31-3.547,0.31c-4.406,0-11.947-1.245-22.854-7.176c-7.277-3.958-11.395-10.329-13.424-14.702
			C265.491,206.045,266.442,206,267.491,206 M267.491,199c-6.529,0-10.976,1.474-11.383,2.262
			c-0.758,1.467,3.804,17.65,18.614,25.705c11.453,6.228,20.13,8.027,26.199,8.027c6.906,0,10.437-2.33,10.84-3.111
			c0.758-1.467,1.167-16.181-23.984-28.212C280.302,200.096,273.122,199,267.491,199L267.491,199z"/>
	</g>
</g>
</svg>
